<?xml version="1.0"?><svg xmlns="http://www.w3.org/2000/svg" viewBox="0 0 100 100"><path d="M69.084 44.471L57.378 42.77a1.297 1.297 0 0 1-.978-.711l-5.235-10.607c-.476-.965-1.853-.965-2.329 0L43.6 42.059a1.301 1.301 0 0 1-.978.711l-11.706 1.701c-1.065.155-1.491 1.464-.72 2.215l8.471 8.257a1.3 1.3 0 0 1 .374 1.15l-2 11.659c-.182 1.061.932 1.87 1.885 1.369l10.47-5.504c.378-.199.83-.199 1.209 0l10.47 5.504c.953.501 2.067-.308 1.885-1.369l-2-11.659a1.299 1.299 0 0 1 .374-1.15l8.471-8.257c.77-.751.344-2.061-.721-2.215z" fill="#f8b26a"/><path d="M90.997 54.98L84.251 54a.75.75 0 0 1-.564-.409l-3.017-6.113a.748.748 0 0 0-1.342 0l-3.017 6.113a.747.747 0 0 1-.564.409l-6.746.98a.749.749 0 0 0-.415 1.277l4.881 4.758c.176.172.257.42.215.662l-1.152 6.718a.748.748 0 0 0 1.086.789l6.033-3.172a.747.747 0 0 1 .697 0l6.033 3.172a.748.748 0 0 0 1.086-.789l-1.152-6.718a.746.746 0 0 1 .215-.662l4.881-4.758a.747.747 0 0 0-.412-1.277z" fill="#f5e169"/><path d="M30.997 54.98L24.251 54a.75.75 0 0 1-.564-.409l-3.017-6.113a.748.748 0 0 0-1.342 0l-3.017 6.113a.747.747 0 0 1-.564.409l-6.746.98a.749.749 0 0 0-.415 1.277l4.881 4.758c.176.172.257.42.215.662l-1.152 6.718a.748.748 0 0 0 1.086.789l6.033-3.172a.747.747 0 0 1 .697 0l6.033 3.172a.748.748 0 0 0 1.086-.789l-1.152-6.718a.746.746 0 0 1 .215-.662l4.881-4.758a.747.747 0 0 0-.412-1.277z" fill="#f5e169"/><metadata xmlns:d="https://loading.io/stock/">
<d:name>star</d:name>
<d:tags>star,favorite,bookmark,asteriod,rank,review,tag,champion,winner</d:tags>
<d:license>by</d:license>
<d:slug>7o9l3e</d:slug>
</metadata></svg>